<svg width="30" height="33" viewBox="0 0 30 33" fill="none" xmlns="http://www.w3.org/2000/svg">
<rect y="0.0688477" width="30" height="32.3289" rx="4" fill="#90E051"/>
<path d="M23.1562 12.4326C22.9688 11.6826 22.375 11.0889 21.6562 10.9014C20.3125 10.5264 15 10.5264 15 10.5264C15 10.5264 9.65625 10.5264 8.3125 10.9014C7.59375 11.0889 7 11.6826 6.8125 12.4326C6.4375 13.7451 6.4375 16.5576 6.4375 16.5576C6.4375 16.5576 6.4375 19.3389 6.8125 20.6826C7 21.4326 7.59375 21.9951 8.3125 22.1826C9.65625 22.5264 15 22.5264 15 22.5264C15 22.5264 20.3125 22.5264 21.6562 22.1826C22.375 21.9951 22.9688 21.4326 23.1562 20.6826C23.5312 19.3389 23.5312 16.5576 23.5312 16.5576C23.5312 16.5576 23.5312 13.7451 23.1562 12.4326ZM13.25 19.0889V14.0264L17.6875 16.5576L13.25 19.0889Z" fill="white"/>
</svg>
