<svg width="30" height="33" viewBox="0 0 30 33" fill="none" xmlns="http://www.w3.org/2000/svg">
<rect y="0.0688477" width="30" height="32.3289" rx="4" fill="#90E051"/>
<path d="M15 11.9409C13 11.9409 11.4062 13.5659 11.4062 15.5347C11.4062 17.5347 13 19.1284 15 19.1284C16.9688 19.1284 18.5938 17.5347 18.5938 15.5347C18.5938 13.5659 16.9688 11.9409 15 11.9409ZM15 17.8784C13.7188 17.8784 12.6562 16.8472 12.6562 15.5347C12.6562 14.2534 13.6875 13.2222 15 13.2222C16.2812 13.2222 17.3125 14.2534 17.3125 15.5347C17.3125 16.8472 16.2812 17.8784 15 17.8784ZM19.5625 11.8159C19.5625 11.3472 19.1875 10.9722 18.7188 10.9722C18.25 10.9722 17.875 11.3472 17.875 11.8159C17.875 12.2847 18.25 12.6597 18.7188 12.6597C19.1875 12.6597 19.5625 12.2847 19.5625 11.8159ZM21.9375 12.6597C21.875 11.5347 21.625 10.5347 20.8125 9.72217C20 8.90967 19 8.65967 17.875 8.59717C16.7188 8.53467 13.25 8.53467 12.0938 8.59717C10.9688 8.65967 10 8.90967 9.15625 9.72217C8.34375 10.5347 8.09375 11.5347 8.03125 12.6597C7.96875 13.8159 7.96875 17.2847 8.03125 18.4409C8.09375 19.5659 8.34375 20.5347 9.15625 21.3784C10 22.1909 10.9688 22.4409 12.0938 22.5034C13.25 22.5659 16.7188 22.5659 17.875 22.5034C19 22.4409 20 22.1909 20.8125 21.3784C21.625 20.5347 21.875 19.5659 21.9375 18.4409C22 17.2847 22 13.8159 21.9375 12.6597ZM20.4375 19.6597C20.2188 20.2847 19.7188 20.7534 19.125 21.0034C18.1875 21.3784 16 21.2847 15 21.2847C13.9688 21.2847 11.7812 21.3784 10.875 21.0034C10.25 20.7534 9.78125 20.2847 9.53125 19.6597C9.15625 18.7534 9.25 16.5659 9.25 15.5347C9.25 14.5347 9.15625 12.3472 9.53125 11.4097C9.78125 10.8159 10.25 10.3472 10.875 10.0972C11.7812 9.72217 13.9688 9.81592 15 9.81592C16 9.81592 18.1875 9.72217 19.125 10.0972C19.7188 10.3159 20.1875 10.8159 20.4375 11.4097C20.8125 12.3472 20.7188 14.5347 20.7188 15.5347C20.7188 16.5659 20.8125 18.7534 20.4375 19.6597Z" fill="white"/>
</svg>
