<svg width="30" height="33" viewBox="0 0 30 33" fill="none" xmlns="http://www.w3.org/2000/svg">
<rect y="0.0688477" width="30" height="32.3289" rx="4" fill="#90E051"/>
<path d="M21.3438 12.2847C21.9688 11.8159 22.5312 11.2534 22.9688 10.5972C22.4062 10.8472 21.75 11.0347 21.0938 11.0972C21.7812 10.6909 22.2812 10.0659 22.5312 9.28467C21.9062 9.65967 21.1875 9.94092 20.4688 10.0972C19.8438 9.44092 19 9.06592 18.0625 9.06592C16.25 9.06592 14.7812 10.5347 14.7812 12.3472C14.7812 12.5972 14.8125 12.8472 14.875 13.0972C12.1562 12.9409 9.71875 11.6284 8.09375 9.65967C7.8125 10.1284 7.65625 10.6909 7.65625 11.3159C7.65625 12.4409 8.21875 13.4409 9.125 14.0347C8.59375 14.0034 8.0625 13.8784 7.625 13.6284V13.6597C7.625 15.2534 8.75 16.5659 10.25 16.8784C10 16.9409 9.6875 17.0034 9.40625 17.0034C9.1875 17.0034 9 16.9722 8.78125 16.9409C9.1875 18.2534 10.4062 19.1909 11.8438 19.2222C10.7188 20.0972 9.3125 20.6284 7.78125 20.6284C7.5 20.6284 7.25 20.5972 7 20.5659C8.4375 21.5034 10.1562 22.0347 12.0312 22.0347C18.0625 22.0347 21.3438 17.0659 21.3438 12.7222C21.3438 12.5659 21.3438 12.4409 21.3438 12.2847Z" fill="white"/>
</svg>
