<svg width="26" height="26" viewBox="0 0 26 26" fill="none" xmlns="http://www.w3.org/2000/svg">
<path d="M13.1162 19.4333L18.0756 22.5821C18.7152 22.9855 19.5024 22.3853 19.3154 21.6473L17.8788 15.9991C17.8399 15.8426 17.8461 15.6782 17.8966 15.525C17.9471 15.3718 18.0398 15.236 18.1641 15.1332L22.6118 11.4236C23.1923 10.9414 22.8971 9.96726 22.1395 9.91806L16.3339 9.54414C16.1755 9.53492 16.0232 9.47976 15.8956 9.3854C15.7681 9.29104 15.6707 9.16156 15.6156 9.01278L13.4508 3.56146C13.3935 3.40392 13.2891 3.26784 13.1518 3.17167C13.0145 3.07551 12.8509 3.02393 12.6833 3.02393C12.5156 3.02393 12.3521 3.07551 12.2148 3.17167C12.0775 3.26784 11.9731 3.40392 11.9158 3.56146L9.75097 9.01278C9.6958 9.16156 9.59848 9.29104 9.47092 9.3854C9.34335 9.47976 9.19106 9.53492 9.03266 9.54414L3.22709 9.91806C2.46942 9.96726 2.17422 10.9414 2.75478 11.4236L7.20243 15.1332C7.32674 15.236 7.41948 15.3718 7.46997 15.525C7.52046 15.6782 7.52663 15.8426 7.48779 15.9991L6.1594 21.234C5.93308 22.1196 6.87771 22.8379 7.63539 22.3557L12.2503 19.4333C12.3797 19.351 12.5299 19.3073 12.6833 19.3073C12.8366 19.3073 12.9868 19.351 13.1162 19.4333V19.4333Z" fill="#90E051"/>
</svg>
